HIERARCHY
ROOT Hips
{
	OFFSET 0.000000 0.000000 0.000000
	CHANNELS 6 Xposition Yposition Zposition Zrotation Xrotation Yrotation
	JOINT Spine
	{
		OFFSET 0.000000 7.322665 -0.000001
		CHANNELS 3 Zrotation Xrotation Yrotation
		JOINT Spine1
		{
			OFFSET 0.000000 17.707638 -0.000002
			CHANNELS 3 Zrotation Xrotation Yrotation
			JOINT Neck
			{
				OFFSET 0.000000 19.493652 -0.000002
				CHANNELS 3 Zrotation Xrotation Yrotation
				JOINT Head
				{
					OFFSET 0.000000 13.841621 1.786014
					CHANNELS 3 Zrotation Xrotation Yrotation
					End Site
					{
						OFFSET 0.000000 17.860161 -0.000002
					}
				}
			}
			JOINT LeftShoulder
			{
				OFFSET 3.552432 16.070168 -0.180037
				CHANNELS 3 Zrotation Xrotation Yrotation
				JOINT LeftArm
				{
					OFFSET 10.355261 0.000000 0.000000
					CHANNELS 3 Zrotation Xrotation Yrotation
					JOINT LeftForeArm
					{
						OFFSET 27.312889 0.000000 0.000000
						CHANNELS 3 Zrotation Xrotation Yrotation
						JOINT LeftHand
						{
							OFFSET 21.407238 0.000000 0.000000
							CHANNELS 3 Zrotation Xrotation Yrotation
							End Site
							{
								OFFSET 13.395115 0.000000 0.000000
							}
						}
					}
				}
			}
			JOINT RightShoulder
			{
				OFFSET -3.589735 16.070168 -0.180037
				CHANNELS 3 Zrotation Xrotation Yrotation
				JOINT RightArm
				{
					OFFSET -10.355261 0.000000 0.000000
					CHANNELS 3 Zrotation Xrotation Yrotation
					JOINT RightForeArm
					{
						OFFSET -27.312885 0.000000 0.000000
						CHANNELS 3 Zrotation Xrotation Yrotation
						JOINT RightHand
						{
							OFFSET -21.407238 0.000000 0.000000
							CHANNELS 3 Zrotation Xrotation Yrotation
							End Site
							{
								OFFSET -13.395123 0.000000 0.000000
							}
						}
					}
				}
			}
		}
	}
	JOINT LeftUpLeg
	{
		OFFSET 8.930079 0.000000 0.000000
		CHANNELS 3 Zrotation Xrotation Yrotation
		JOINT LeftLeg
		{
			OFFSET 0.000000 -43.123249 0.000005
			CHANNELS 3 Zrotation Xrotation Yrotation
			JOINT LeftFoot
			{
				OFFSET 0.000000 -33.635326 0.000004
				CHANNELS 3 Zrotation Xrotation Yrotation
				JOINT LeftToeBase
				{
					OFFSET 0.000000 -5.804550 13.395120
					CHANNELS 3 Zrotation Xrotation Yrotation
					End Site
					{
						OFFSET 0.000000 0.000000 3.572030
					}
				}
			}
		}
	}
	JOINT RightUpLeg
	{
		OFFSET -8.930079 0.000000 0.000000
		CHANNELS 3 Zrotation Xrotation Yrotation
		JOINT RightLeg
		{
			OFFSET 0.000000 -43.123249 0.000005
			CHANNELS 3 Zrotation Xrotation Yrotation
			JOINT RightFoot
			{
				OFFSET 0.000000 -33.635326 0.000004
				CHANNELS 3 Zrotation Xrotation Yrotation
				JOINT RightToeBase
				{
					OFFSET 0.000000 -5.804550 13.395120
					CHANNELS 3 Zrotation Xrotation Yrotation
					End Site
					{
						OFFSET 0.000000 0.000000 3.572030
					}
				}
			}
		}
	}
}
MOTION
Frames: 12
Frame Time: 0.033333
6.422627 -0.306463 9.163734 -4.737884 -21.708771 -2.026144 -4.505776 19.992969 -4.126018 -0.423209 -3.397535 4.809631 7.924940 9.307471 -3.730604 1.425011 2.641465 -0.234394 -11.447406 1.950193 6.833487 -40.952322 27.616325 -55.954395 -5.764338 -2.875567 -63.572088 -30.847327 40.236354 22.384584 9.498622 1.016318 -15.015877 40.461149 -6.461108 40.226430 14.993669 -10.557165 55.626997 43.799664 39.801292 -45.329551 9.450335 22.014270 7.073351 -0.000039 7.871636 0.000005 -6.616616 17.450018 14.281472 -0.000009 -26.201512 -0.000027 -7.721027 18.484474 -18.186437 0.000020 13.216402 -0.000007 7.800770 16.925072 -9.697509 0.000009 -26.993664 0.000009
5.693994 -0.362566 9.198695 -5.763759 -22.073715 -2.742585 -3.978186 20.561161 -4.190522 -0.421599 -3.542393 4.720789 7.721087 9.207485 -3.172318 1.454663 2.319043 -0.224692 -11.683932 2.020533 7.065864 -42.185250 28.005323 -55.343606 -7.786617 -3.847929 -63.864816 -30.283840 39.775443 22.457998 9.967584 1.054369 -14.939849 41.399429 -5.637398 39.735322 16.360075 -11.124355 56.685728 40.920309 40.228575 -43.754619 11.014851 21.326588 5.984759 -0.000043 10.249814 0.000008 -7.296142 16.434840 15.204225 -0.000013 -26.165082 -0.000013 -6.468239 18.611142 -18.916721 0.000008 13.864316 -0.000007 6.864136 16.507826 -8.794915 0.000005 -27.160321 -0.000005
4.989933 -0.418263 9.232548 -6.878960 -22.305615 -3.727083 -3.200002 20.894652 -4.248450 -0.591213 -3.613312 4.528169 7.421970 9.399881 -2.470875 1.405373 1.957453 -0.202206 -11.641683 1.953881 7.570595 -42.163215 28.056612 -55.398305 -7.970741 -3.814697 -64.588605 -29.737742 39.907392 21.776870 10.358632 1.085306 -14.769480 41.852192 -4.680423 40.161516 15.696109 -10.598735 56.795649 39.646823 40.134325 -43.973728 12.503263 20.867240 5.400452 -0.000055 12.097424 0.000006 -7.830674 15.628255 15.874430 -0.000005 -26.046660 -0.000018 -5.240685 18.698543 -19.601543 0.000011 14.322991 -0.000006 6.115175 15.989765 -7.683721 0.000007 -27.174034 -0.000012
4.323063 -0.452843 9.258859 -7.937083 -22.447256 -4.645369 -2.398546 21.130843 -4.323935 -0.814389 -3.692166 4.342048 7.301608 9.634291 -2.021535 1.317205 1.712862 -0.175920 -11.320775 1.934957 8.007654 -41.050861 27.845710 -56.214106 -6.972815 -3.230817 -65.257185 -29.502685 40.449398 21.026527 10.653647 1.164575 -14.580103 41.951695 -3.972195 40.952974 14.122347 -9.553223 56.588681 40.805227 40.362822 -44.384663 13.892374 20.678968 4.923421 -0.000062 13.250015 0.000007 -8.457871 15.117862 16.475779 -0.000008 -25.979823 -0.000027 -3.947410 18.820250 -19.727389 0.000015 14.532363 -0.000020 5.472860 15.592678 -7.209896 -0.000002 -27.227046 0.000011
3.720208 -0.469049 9.287290 -8.878221 -22.549279 -5.340856 -1.622744 21.273013 -4.505714 -1.043889 -3.721838 4.259532 7.366900 9.800916 -1.859617 1.243228 1.707868 -0.158976 -10.912633 1.949826 8.114139 -39.972586 27.307805 -57.007453 -6.621736 -3.001680 -65.722478 -29.059344 40.482473 20.594598 10.889855 1.217644 -14.348918 41.765384 -3.500925 41.594011 13.774780 -9.289513 56.638206 40.629954 40.837182 -43.791133 15.133998 20.680921 4.259094 -0.000088 13.853667 0.000006 -9.037584 14.818556 17.154372 -0.000013 -25.881638 -0.000022 -2.687723 19.114978 -20.012118 0.000003 14.366430 0.000001 4.955582 15.355148 -6.816253 0.000012 -27.258103 0.000007
3.195887 -0.468709 9.301359 -9.544701 -22.566887 -5.797273 -1.020291 21.255764 -4.765723 -1.235359 -3.653858 4.300096 7.409642 9.887174 -1.838219 1.158732 1.840380 -0.139315 -10.668860 1.896080 8.003941 -39.317755 26.574103 -57.464267 -6.874634 -3.071021 -66.043592 -28.932552 40.444221 20.719522 11.073236 1.164447 -14.180349 41.674590 -3.278002 42.084299 14.201809 -9.501144 56.888000 39.977101 40.993122 -43.783746 16.070402 20.758248 3.560878 -0.000078 14.007933 0.000012 -9.429168 14.755447 17.817570 -0.000010 -25.800305 -0.000022 -1.676020 19.401205 -20.452773 0.000007 14.048864 -0.000003 4.538755 15.177520 -6.374157 0.000003 -27.262242 -0.000006
2.744631 -0.461766 9.308068 -10.048159 -22.473177 -6.100904 -0.509122 21.131775 -5.046198 -1.383236 -3.597195 4.378232 7.429796 9.969383 -1.936061 1.087226 1.990420 -0.124142 -10.509309 1.864148 7.829244 -38.997423 25.802436 -57.710283 -6.772267 -3.001032 -66.212264 -28.632495 40.307344 20.995786 11.169027 1.115332 -14.129404 41.858456 -3.278668 42.518839 14.323661 -9.451251 57.256048 39.942864 40.847226 -43.964285 16.867029 20.812736 3.144871 -0.000100 13.906892 0.000009 -9.963393 14.761736 18.178099 0.000009 -25.735036 -0.000001 -0.748717 19.642553 -20.771406 0.000000 13.520025 -0.000000 3.668053 15.468218 -6.096810 0.000002 -27.639158 -0.000011
2.359863 -0.449324 9.293147 -10.442182 -22.294545 -6.310923 -0.100137 20.986702 -5.262453 -1.463183 -3.565953 4.424360 7.489325 10.050817 -2.151383 1.066404 2.032040 -0.129322 -10.346974 1.856465 7.731282 -38.940435 25.100983 -57.948083 -6.564061 -2.924323 -66.092510 -28.712886 40.454323 21.059973 11.213333 1.087782 -14.112811 42.069030 -3.415793 42.788157 14.617684 -9.454879 57.795128 40.326202 40.735313 -44.062281 17.568064 20.722826 3.044492 -0.000099 13.833975 0.000009 -10.338482 14.888532 18.210005 -0.000004 -25.662336 -0.000006 -0.005335 19.715126 -21.245430 0.000018 13.129930 -0.000003 3.329578 15.427454 -5.762967 0.000012 -27.617074 0.000007
2.045080 -0.443830 9.260863 -10.687089 -22.072458 -6.436653 0.221532 20.858103 -5.450594 -1.527444 -3.589948 4.459346 7.562394 10.144029 -2.451307 1.063283 1.942066 -0.138600 -10.210274 1.901537 7.647697 -39.025461 24.404916 -58.103887 -6.750182 -3.036097 -65.889933 -28.938330 40.629493 21.408391 11.238219 1.113042 -14.132717 42.034866 -3.452556 43.059766 15.954212 -10.123896 58.415514 40.678230 40.401283 -45.024675 18.080645 20.550943 3.053858 -0.000125 13.767185 0.000016 -10.598504 15.041682 18.180167 -0.000020 -25.598145 -0.000022 0.503066 19.635057 -21.783975 0.000013 12.933984 0.000001 3.101043 15.303278 -5.316953 0.000013 -27.533059 0.000015
1.784116 -0.441386 9.242305 -10.880908 -21.901131 -6.544117 0.560624 20.827803 -5.649580 -1.616398 -3.672496 4.524861 7.599170 10.173679 -2.836134 1.043361 1.828555 -0.145161 -10.125904 1.978386 7.629117 -38.744880 23.780676 -58.283439 -6.695316 -3.026752 -65.783020 -29.862605 41.141815 22.628236 11.282554 1.173238 -14.290154 42.024556 -3.567791 43.520729 16.217009 -10.251432 58.537030 40.501577 40.218510 -44.758745 18.496198 20.493909 3.085296 -0.000102 13.581924 0.000011 -10.865788 15.205429 18.168336 1.108843 -25.598664 0.479137 0.905006 19.533549 -22.126092 0.000005 12.871691 0.000006 2.929004 15.176323 -5.040249 0.000019 -27.502016 0.000017
1.568249 -0.447196 9.221874 -11.031554 -21.762928 -6.685075 0.828280 20.826078 -5.752495 -1.647176 -3.755444 4.530648 7.697260 10.155803 -3.300926 1.004000 1.759408 -0.149278 -10.034964 2.041208 7.748678 -38.430124 23.235499 -58.481152 -6.184041 -2.798980 -65.731569 -31.717974 41.500363 24.440848 11.277637 1.260338 -14.318081 41.998512 -3.708439 43.776342 16.834531 -10.483328 58.979940 41.116779 40.197091 -45.198603 18.823327 20.445582 3.227439 -0.000097 13.483067 0.000009 -11.078259 15.295302 18.057746 -0.000002 -25.576874 -0.000018 1.211809 19.405976 -22.281429 0.000011 12.888426 0.000014 2.647479 15.098625 -4.897206 0.000017 -27.573626 0.000008
1.391857 -0.457520 9.193233 -11.143848 -21.581151 -6.814361 1.128161 20.761830 -5.856071 -1.730504 -3.856851 4.521617 7.771965 10.177568 -3.771423 0.965171 1.777887 -0.158204 -9.888577 2.139504 7.775111 -38.330202 22.623897 -58.381889 -6.391921 -2.885389 -65.804126 -32.479175 41.396513 25.480207 11.343175 1.370463 -14.274231 41.812099 -3.807025 43.936848 17.425962 -10.693813 59.407893 40.862546 39.929218 -45.304477 19.076715 20.300777 3.396045 -0.000037 13.458749 0.000005 -11.272561 15.398624 17.977085 -0.000019 -25.563279 -0.000020 1.445430 19.204416 -22.423485 0.000009 12.934037 -0.000002 2.336663 15.077048 -4.741347 0.000004 -27.674318 0.000011
